<?xml version="1.0" standalone="no"?>
<!DOCTYPE svg PUBLIC "-//W3C//DTD SVG 20010904//EN"
 "http://www.w3.org/TR/2001/REC-SVG-20010904/DTD/svg10.dtd">
<svg version="1.0" xmlns="http://www.w3.org/2000/svg"
 width="96.000000pt" height="96.000000pt" viewBox="0 0 96.000000 96.000000"
 preserveAspectRatio="xMidYMid meet">

<g transform="translate(0.000000,96.000000) scale(0.100000,-0.100000)"
fill="#000000" stroke="none">
<path d="M460 885 c-20 -24 4 -42 66 -48 155 -16 295 -156 311 -311 7 -65 25
-88 50 -63 15 14 15 24 5 78 -33 178 -160 312 -330 348 -70 15 -87 14 -102 -4z"/>
<path d="M134 716 c-75 -76 -84 -107 -59 -193 48 -167 182 -327 336 -401 121
-59 168 -69 223 -48 42 16 146 112 146 135 0 11 -124 107 -166 129 -18 9 -28
6 -61 -18 l-40 -29 -45 28 c-57 36 -113 92 -149 149 l-28 45 29 40 c34 46 35
44 -47 155 -29 39 -59 72 -65 72 -7 0 -40 -29 -74 -64z m111 -66 l37 -51 -28
-40 -28 -41 29 -56 c38 -71 136 -169 207 -207 l56 -29 41 28 40 28 51 -37 c27
-20 50 -40 50 -45 0 -5 -19 -25 -42 -45 -39 -34 -47 -36 -88 -31 -81 10 -207
81 -286 160 -79 80 -153 210 -161 287 -4 39 -1 48 32 87 20 23 40 42 45 42 5
0 25 -23 45 -50z"/>
<path d="M460 735 c-17 -20 3 -45 37 -45 35 0 94 -27 127 -58 34 -32 65 -96
66 -133 0 -36 24 -56 46 -38 12 10 14 23 10 53 -17 103 -92 192 -187 220 -66
20 -83 20 -99 1z"/>
<path d="M461 586 c-16 -19 1 -46 29 -46 20 0 50 -31 50 -52 0 -9 7 -21 16
-28 12 -11 18 -10 31 3 14 14 15 20 2 53 -23 60 -101 103 -128 70z"/>
</g>
</svg>
